<?xml version="1.0" encoding="UTF-8"?><svg id="Layer_1" xmlns="http://www.w3.org/2000/svg" viewBox="0 0 708.66 200.41"><defs><style>.cls-1{fill:#3c533c;}</style></defs><g id="SLR-Logo-Print-Dark_Green"><g id="Layer_1-2"><path class="cls-1" d="m531.17,176.19h-86.19V5.22h0c0-.95-.95-1.9-1.9-1.9h-22.32c-.95,0-1.9.95-1.9,1.9v189.72h0c0,.95.95,1.9,1.9,1.9h110.41c.95,0,1.9-.95,1.9-1.9v-16.86c.24-.95-.71-1.9-1.9-1.9h0Z"/><path class="cls-1" d="m198.98,0h-54.61c-.71,0-1.42.47-1.42,1.42v23.27c0,.71.47,1.42,1.42,1.42h30.16v30.16c0,.71.47,1.42,1.42,1.42h23.27c.71,0,1.42-.47,1.42-1.42V1.66c-.47-1.19-.95-1.66-1.66-1.66h0Z"/><path class="cls-1" d="m198.98,87.14h-66.25c-.71,0-1.42.47-1.42,1.42v23.03c0,.95-.47,2.14-1.19,2.85l-15.91,15.91c-.71.71-1.66,1.19-2.85,1.19h-22.56c-.95,0-2.14-.47-2.85-1.19l-15.91-15.91c-.71-.71-1.19-1.66-1.19-2.85v-22.56c0-.95.47-2.14,1.19-2.85l15.91-15.91c.71-.71,1.66-1.19,2.85-1.19h23.03c.71,0,1.42-.47,1.42-1.42V1.42c0-.71-.47-1.42-1.42-1.42h-23.27c-.71,0-1.42.47-1.42,1.42v65.77c0,.24-.24.47-.47.71h0c-.24,0-.47,0-.71-.24L39.42,21.13c-.47-.47-1.42-.47-1.9,0l-16.38,16.38c-.47.47-.47,1.42,0,1.9l46.54,46.54c.24.24.24.47.24.71h0c0,.24-.24.47-.71.47H1.42c-.95,0-1.42.71-1.42,1.42v23.27c0,.71.47,1.42,1.42,1.42h65.77c.24,0,.47.24.71.47h0c0,.24,0,.47-.24.71l-46.54,46.3c-.47.47-.47,1.42,0,1.9l16.38,16.38c.47.47,1.42.47,1.9,0l46.54-46.54c.24-.24.47-.24.71-.24s.47.47.47.71v65.77c0,.71.47,1.42,1.42,1.42h23.27c.71,0,1.42-.47,1.42-1.42v-65.54c0-.24.24-.47.47-.71h0c.24,0,.47,0,.71.24l46.54,46.54c.47.47,1.42.47,1.9,0l16.38-16.38c.47-.47.47-1.42,0-1.9l-46.54-46.54c-.24-.24-.24-.47-.24-.71h0c0-.24.47-.47.71-.47h65.77c.71,0,1.42-.47,1.42-1.42v-23.27c-.24-.71-.71-1.42-1.42-1.42Z"/><path class="cls-1" d="m267.37,52.71c0-21.85,18.05-31.82,45.35-31.82,31.34,0,47.49,12.82,49.86,37.99h0c0,.95.95,1.9,1.9,1.9h23.03c1.19,0,1.9-.95,1.66-1.9C385.14,18.76,357.6,0,313.19,0s-71,19.95-71,55.33c0,73.85,126.08,34.9,126.08,88.33,0,25.41-20.18,35.85-48.91,35.85-37.99,0-52-18.05-54.14-47.25-.24-1.19-1.19-1.9-2.14-1.9h-22.79c-.95,0-1.9.95-1.9,1.9,1.66,44.17,31.11,68.15,80.49,68.15,43.93,0,74.8-20.18,74.8-60.07-.24-75.51-126.32-37.75-126.32-87.62h0Z"/><path class="cls-1" d="m708.31,195.42l-50.81-79.78c28.97-6.17,47.01-24.22,47.01-55.33,0-37.99-27.07-56.99-71.23-56.99h-68.15c-.95,0-1.9.95-1.9,1.9v189.72h0c0,.95.95,1.9,1.9,1.9h22.32c.95,0,1.9-.95,1.9-1.9v-77.17h40.6l48.2,77.41c.95.71,1.9,1.66,3.09,1.66h26.36c.24,0,.47,0,.71-.24.47-.24.47-.95,0-1.19h0Zm-118.96-97.83V23.74h45.35c27.31,0,43.69,12.35,43.69,37.04,0,26.12-17.81,36.8-43.22,36.8h-45.83Z"/></g></g></svg>